<svg width="37" height="37" viewBox="0 0 37 37" fill="none" xmlns="http://www.w3.org/2000/svg">
<path d="M21.0458 18.5L36.0139 3.53195C36.3097 3.18654 36.4642 2.74224 36.4467 2.28782C36.4291 1.83341 36.2408 1.40235 35.9192 1.08079C35.5976 0.75923 35.1666 0.570852 34.7122 0.553299C34.2577 0.535747 33.8134 0.690315 33.468 0.986112L18.5 15.9542L3.53192 0.968056C3.19193 0.628064 2.7308 0.437057 2.24998 0.437057C1.76916 0.437057 1.30803 0.628064 0.968034 0.968056C0.628041 1.30805 0.437035 1.76918 0.437035 2.25C0.437035 2.73082 0.628041 3.19195 0.968034 3.53195L15.9541 18.5L0.968034 33.4681C0.779026 33.6299 0.625517 33.8291 0.517141 34.0531C0.408766 34.2771 0.347864 34.5211 0.33826 34.7698C0.328655 35.0184 0.370554 35.2664 0.461327 35.4981C0.552101 35.7298 0.689789 35.9402 0.865749 36.1162C1.04171 36.2921 1.25214 36.4298 1.48384 36.5206C1.71554 36.6114 1.9635 36.6533 2.21216 36.6437C2.46082 36.6341 2.70481 36.5732 2.92881 36.4648C3.15282 36.3564 3.352 36.2029 3.51387 36.0139L18.5 21.0458L33.468 36.0139C33.8134 36.3097 34.2577 36.4642 34.7122 36.4467C35.1666 36.4291 35.5976 36.2408 35.9192 35.9192C36.2408 35.5977 36.4291 35.1666 36.4467 34.7122C36.4642 34.2578 36.3097 33.8135 36.0139 33.4681L21.0458 18.5Z" fill="#00B372"/>
</svg>
